<?xml version='1.0' encoding='utf-8'?>
<svg xmlns="http://www.w3.org/2000/svg" version="1.1" width="600px" height="976px" viewBox="0 0 600 976"> <g id="layer1"> <g style="fill:rgb(0,0,0); fill-opacity:1.0; stroke-linejoin: miter"> <path d="M82.170975,633.0768L82.170975,633.0768C82.86905,641.32355,83.5636,649.39716,87.93331,656.1138L87.93331,656.1138C90.37727,659.87036,93.983,663.22266,97.27789,666.28235L97.27789,666.28235C99.86049,668.6805,102.28262,670.9252,103.68871,673.00653L103.68871,673.00653C106.99588,677.90204,104.734215,681.8645,101.45746,684.1369L101.45746,684.1369C98.21506,686.38544,93.89032,687.0808,89.73441,687.7592C89.707825,687.76355,89.68093,687.7659,89.65399,687.7663L89.65399,687.7663C80.90301,687.8921,71.96895,688.03186,65.2937,684.9721L65.291275,684.97095L65.28845,684.9696L65.29085,684.9707C65.141106,684.90204,64.98787,684.82965,64.84054,684.7578L64.8405,684.7578C58.39842,681.61835,54.133663,675.5047,49.96452,669.5492L50.146553,669.71356L50.06083,669.6658L50.060875,669.6658C41.07568,664.6562,31.830202,659.51636,29.200354,655.1225L29.200354,655.1225C26.372154,650.3972,30.958582,646.6199,34.811527,643.3435L34.67228,643.52423C37.713238,637.17456,40.813217,630.68896,43.14608,627.99255L43.14608,627.99255C44.818043,626.06,46.257504,625.89685,47.594948,626.54865L47.594933,626.54865C48.150818,626.8195,48.667328,627.2204,49.128174,627.5757L49.150127,627.59357L49.15037,627.59375L48.481598,627.5595L59.965473,619.598L59.866085,619.6866C69.217255,609.0469,78.540665,598.438,85.109634,589.23517L85.109634,589.23517C87.836395,585.415,90.090546,581.83417,92.24042,578.4186L92.24042,578.4186C94.18536,575.3287,96.04826,572.3688,98.091805,569.5058L98.091805,569.5058C99.22368,567.9201,100.411736,566.3629,101.7026,564.8261L101.7026,564.8261C107.89435,557.4548,116.40904,550.60425,124.398575,546.18713L124.398575,546.18713C126.19432,545.19434,127.96241,544.32526,129.64963,543.4958L129.64963,543.4958C131.21692,542.7253,132.71191,541.9902,134.11621,541.2138L134.11621,541.2138C137.93445,539.10284,141.01105,536.72375,142.8255,532.67474L142.8255,532.67474C146.08102,525.4099,145.35109,512.7082,144.59123,499.76602L144.85034,500.20016L137.78421,495.8362C137.5267,495.6772,137.44688,495.3395,137.6059,495.082C137.76494,494.8245,138.1026,494.7447,138.3601,494.90372L138.3601,494.90372L145.42624,499.26767C145.5782,499.3615,145.67487,499.5235,145.68535,499.70178L145.68535,499.70178C146.43712,512.50616,147.2188,525.551,143.82568,533.123L143.82568,533.123C141.86977,537.4877,138.55176,540.014,134.64651,542.173L134.64651,542.173C133.21541,542.9642,131.69525,543.71136,130.13315,544.4794L130.13315,544.4793C128.44289,545.3103,126.69802,546.16815,124.92887,547.14624L124.92887,547.14624C117.05207,551.5011,108.643524,558.26685,102.54181,565.53107L102.54181,565.53107C101.272545,567.0421,100.10213,568.5759,98.98388,570.1425L98.98388,570.1425C96.961876,572.9753,95.11598,575.90765,93.16797,579.00244L93.16797,579.00244C91.019554,582.41565,88.749275,586.0226,86.00169,589.8719L86.00169,589.8719C79.393616,599.1296,70.02841,609.78424,60.689312,620.41016C60.6599,620.4436,60.62653,620.4733,60.589928,620.4987L60.589928,620.4987L49.106045,628.46027C48.901264,628.6022,48.626488,628.58813,48.43727,628.42596L48.43727,628.42596L48.43702,628.4258L48.45897,628.4436C47.978004,628.0728,47.551598,627.7467,47.114815,627.53394L47.1148,627.5339C46.32344,627.1482,45.400288,627.0621,43.97493,628.7096L43.97493,628.7096C41.765274,631.2636,38.742683,637.56244,35.66077,643.9976C35.627556,644.067,35.58011,644.1286,35.52153,644.17847L35.52153,644.17847C31.337389,647.73645,27.886658,650.79346,30.140774,654.55963L30.140774,654.55963C32.577164,658.63025,41.435406,663.60187,50.59459,668.7085L50.59464,668.7085L50.68035,668.7563C50.752636,668.79663,50.814888,668.8528,50.86238,668.92065L50.86238,668.92065C55.068752,674.9293,59.17928,680.7797,65.32064,683.7725L65.3206,683.7726C65.45801,683.83954,65.60809,683.9105,65.747604,683.9745L65.75,683.9756L65.75282,683.97687L65.75039,683.97577C72.15277,686.9104,80.80393,686.7973,89.63826,686.6704L89.557846,686.67755C93.78044,685.9882,97.83354,685.3163,100.832886,683.23627L100.8329,683.23627C103.79753,681.18036,105.640594,677.85376,102.78053,673.62006L102.78053,673.62006C101.461075,671.667,99.15134,669.5176,96.532104,667.0854L96.532104,667.0854C93.25859,664.0456,89.545654,660.60187,87.01461,656.7114L87.01461,656.7114C82.469086,649.7247,81.772255,641.36053,81.078865,633.16925C81.05334,632.8677,81.277115,632.60254,81.57869,632.577C81.88027,632.55145,82.14544,632.77527,82.170975,633.0768 Z"/> </g> <g style="fill:rgb(0,0,0); fill-opacity:1.0; stroke-linejoin: miter"> <path d="M137.59053,495.0599L137.59053,495.0599C147.98355,464.5215,158.39821,433.91495,166.90619,417.20468L166.90619,417.20468C175.45871,400.40692,182.13713,397.5512,188.80914,394.73486C189.08798,394.61716,189.40942,394.7478,189.52713,395.02664C189.6448,395.30545,189.51419,395.62692,189.23537,395.74463L189.23537,395.74463C182.76518,398.47574,176.30135,401.16748,167.88287,417.70197L167.88287,417.70197C159.41985,434.32394,149.03484,464.8343,138.6281,495.413C138.5306,495.6995,138.21927,495.85272,137.93275,495.75522C137.64624,495.65775,137.49303,495.3464,137.59053,495.0599 Z"/> </g> <g style="fill:rgb(0,0,0); fill-opacity:1.0; stroke-linejoin: miter"> <path d="M188.30707,394.45203L188.30707,394.45203L205.85576,381.8934L205.63748,382.2308C206.07835,380.04312,206.52591,377.81976,207.71506,374.8268L207.71506,374.8268C208.89679,371.85254,210.81094,368.11972,212.7065,364.42188C212.84454,364.15253,213.1748,364.0461,213.44412,364.1842C213.71346,364.32224,213.81987,364.6525,213.68181,364.9218L213.68181,364.9218C211.77759,368.63657,209.89163,372.3169,208.73361,375.23148L208.73361,375.23148C207.58295,378.12756,207.15074,380.26962,206.71188,382.44733C206.68446,382.58334,206.60645,382.70395,206.49359,382.7847L206.49359,382.7847L188.9449,395.34332C188.69879,395.51947,188.35648,395.4627,188.18036,395.2166C188.00421,394.9705,188.06094,394.62817,188.30707,394.45203 Z"/> </g> <g style="fill:rgb(0,0,0); fill-opacity:1.0; stroke-linejoin: miter"> <path d="M212.26654,365.40863L212.26654,365.40863L207.76984,365.08636L208.17328,364.94916C201.63727,370.76434,195.05774,376.62045,186.79568,381.40607L186.79568,381.40607C178.54153,386.18716,168.62186,389.89114,158.75946,393.5753L158.89713,393.49982L133.40767,412.67395L133.56439,412.4889L125.23074,428.508C125.16176,428.6406,125.04158,428.7393,124.898056,428.78113L124.898056,428.78113L116.79509,431.14484C116.50455,431.22955,116.2003,431.06274,116.115555,430.77222C116.03081,430.48163,116.19763,430.17743,116.488174,430.09265L116.488174,430.09265L124.59114,427.72897L124.25845,428.00214L132.5921,411.98312C132.62987,411.91052,132.68341,411.8473,132.74881,411.7981L132.74881,411.7981L158.23827,392.624C158.2803,392.59235,158.32666,392.56696,158.37593,392.54855L158.37593,392.54855C168.25967,388.85645,178.0871,385.1838,186.24637,380.45767L186.24637,380.45767C194.3982,375.7359,200.89957,369.95367,207.44476,364.1303C207.55524,364.03204,207.70071,363.98257,207.8482,363.99313L207.8482,363.99313L212.34491,364.31543C212.64679,364.33707,212.87396,364.5993,212.85233,364.90118C212.83069,365.20306,212.56842,365.43024,212.26654,365.40863 Z"/> </g> <g style="fill:rgb(0,0,0); fill-opacity:1.0; stroke-linejoin: miter"> <path d="M117.086296,431.437L117.086296,431.437C113.71004,434.83804,110.20097,438.3918,103.99051,438.9693L103.99051,438.9693C97.87761,439.53772,89.163155,437.2053,80.60595,434.92328C80.31352,434.84528,80.13966,434.54504,80.21765,434.2526C80.29563,433.96014,80.595924,433.7863,80.88835,433.8643L80.88835,433.8643C89.53204,436.1693,98.01855,438.4239,103.88904,437.87802L103.88904,437.87802C109.66199,437.34122,112.91882,434.0794,116.30847,430.66486C116.521706,430.45007,116.868675,430.4488,117.083466,430.66202C117.298256,430.87524,117.299515,431.2222,117.086296,431.437 Z"/> </g> <g style="fill:rgb(0,0,0); fill-opacity:1.0; stroke-linejoin: miter"> <path d="M81.102806,434.63788L81.10274,434.6379L81.068794,434.65247L81.06886,434.65247C72.71737,438.23978,63.97911,442.0329,58.30784,439.72113L58.30784,439.72113C54.81481,438.2973,52.60052,434.6419,51.07002,430.08508L51.070023,430.08508C50.0532,427.05777,49.317642,423.5705,48.718838,419.93808L48.718838,419.93808C47.230442,410.90894,46.48607,400.4611,50.753952,395.5304L50.753952,395.5304C55.05008,390.56702,64.225296,391.4095,72.87537,392.1512L72.53923,392.2318L72.56744,392.2143L72.567474,392.21426C81.74402,386.5105,91.159874,380.63602,98.026505,380.7199L98.026505,380.7199C105.03656,380.80557,109.28072,387.0347,113.310974,392.87518C113.48288,393.1243,113.42028,393.46555,113.17119,393.63745C112.92209,393.80936,112.58081,393.74677,112.40891,393.49765L112.40891,393.49765C108.27092,387.5011,104.34687,381.89322,98.013115,381.81586L98.013115,381.81586C91.54948,381.73688,82.47003,387.3497,73.14606,393.1451L73.14609,393.14508L73.117874,393.16263C73.01743,393.22507,72.89952,393.25333,72.78173,393.24323L72.78173,393.24323C63.840034,392.47647,55.423485,391.8103,51.582634,396.24768L51.582634,396.24768C47.71357,400.71762,48.286972,410.5797,49.800243,419.75983L49.800243,419.75983C50.39519,423.3688,51.119408,426.78992,52.10899,429.73615L52.10899,429.73615C53.6174,434.2271,55.69537,437.4727,58.721535,438.7062L58.721535,438.7062C63.858803,440.8003,72.05002,437.33362,80.6363,433.64542L80.63637,433.64542L80.67031,433.6308C80.94832,433.5114,81.2706,433.64,81.39003,433.9181C81.509476,434.19617,81.38088,434.51843,81.102806,434.63788 Z"/> </g> <g style="fill:rgb(0,0,0); fill-opacity:1.0; stroke-linejoin: miter"> <path d="M87.92024,424.66458L87.92024,424.66458C88.66623,420.1577,89.38997,415.75842,88.98844,412.1689L88.98844,412.1689C88.5902,408.6089,87.078964,405.81778,85.50881,402.92975C85.420746,402.76776,85.42004,402.57236,85.50691,402.4098L85.50691,402.4098C88.052734,397.64453,90.710785,392.62668,93.93094,390.72263L93.93094,390.72263C94.850296,390.17902,95.81012,389.88806,96.75404,389.7858L96.75404,389.7858C99.1953,389.5213,101.52746,390.5167,102.8669,391.66003L102.8669,391.66003C104.81004,393.31866,104.688484,395.2998,104.60062,397.00073C104.593704,397.13464,104.53792,397.26138,104.44384,397.3569L104.44384,397.3569C102.86345,398.96207,101.44339,400.4236,101.013756,401.7147L101.013756,401.7147C100.611496,402.92343,101.08034,404.0423,101.67759,405.39706C101.75295,405.56802,101.73603,405.7656,101.6327,405.92123L101.6327,405.92123C100.46837,407.67496,99.53402,409.14133,99.67634,410.25955L99.67634,410.25955C99.8142,411.3427,101.005394,412.26563,102.54671,413.39697C102.66428,413.48328,102.7426,413.6129,102.76433,413.7571C102.78606,413.90134,102.74939,414.04828,102.66246,414.16537L102.66246,414.16537C101.4142,415.84695,100.48361,417.1792,100.714584,418.20422L100.714584,418.20422C100.950584,419.2516,102.430305,420.20618,104.30736,421.3546C104.46629,421.45184,104.564926,421.62317,104.569214,421.80945C104.573494,421.99573,104.482834,422.17142,104.32853,422.27588L104.32853,422.27588C102.961334,423.2013,102.31342,423.7466,102.55878,424.45068L102.55878,424.45068C102.90424,425.44196,104.7296,426.8854,106.84143,428.5187C107.008896,428.6482,107.08678,428.8626,107.04149,429.0694C106.9962,429.2762,106.835846,429.43842,106.62958,429.4861L106.62958,429.4861C105.40192,429.7698,104.13829,430.06253,102.816154,430.20575L102.816154,430.20575C101.396706,430.35953,99.90224,430.34247,98.27693,429.96436L98.27693,429.96436C95.17343,429.24237,91.629105,427.20325,88.18821,425.2294C87.98972,425.11557,87.88287,424.89035,87.92024,424.66458L87.92024,424.66458 M89.00153,424.84357L88.73357,424.27872C92.22522,426.28168,95.613815,428.2195,98.52528,428.89685L98.525276,428.89685C100.00659,429.24146,101.37403,429.25958,102.698105,429.11612L102.698105,429.11612C103.94472,428.98108,105.14541,428.7042,106.382774,428.41824L106.17091,429.38565C104.23202,427.8861,102.00663,426.19675,101.52382,424.81134L101.52382,424.81134C100.9409,423.1387,102.68718,422.06342,103.71417,421.36826L103.73535,422.28952C102.07083,421.2711,100.009026,420.0589,99.64539,418.44513L99.64539,418.44513C99.27673,416.80905,100.68841,414.98593,101.782425,413.51212L101.89817,414.28052C100.52416,413.27194,98.80002,412.05496,98.58911,410.39792L98.58911,410.39792C98.382675,408.77594,99.66614,406.90176,100.71961,405.31503L100.67472,405.83917C100.11007,404.5584,99.41702,403.04175,99.97383,401.3686L99.97383,401.3686C100.50324,399.77774,102.16323,398.11108,103.66286,396.58798L103.50607,396.94418C103.59529,395.21707,103.65082,393.77017,102.155334,392.49365L102.155334,392.49365C101.01027,391.5162,98.97033,390.6481,96.87209,390.87543L96.87209,390.87543C96.07276,390.96204,95.26462,391.20728,94.48877,391.66605L94.48877,391.66605C91.59935,393.3745,89.09258,398.02408,86.4736,402.9262L86.4717,402.40625C88.03256,405.2772,89.65234,408.24512,90.07765,412.0471L90.07765,412.0471C90.49966,415.8196,89.73946,420.38535,89.00153,424.84357 Z"/> </g> <g style="fill:rgb(0,0,0); fill-opacity:1.0; stroke-linejoin: miter"> <path d="M112.81223,392.87585L112.812454,392.87573L112.83352,392.86798L112.83329,392.86807C114.470566,392.2605,116.16914,391.63248,118.78495,391.52307L118.78496,391.52307C121.37396,391.4149,124.86187,391.8164,128.28372,392.2088L127.82395,392.37585C140.40024,379.1357,153.01312,365.85565,162.4155,358.06848L162.4155,358.06848C171.85428,350.25116,178.07468,347.95398,184.25671,345.67285C184.26932,345.66818,184.28201,345.66403,184.2949,345.6603L184.2949,345.6603C187.09645,344.85428,189.90802,344.0597,197.77751,338.27313L197.77751,338.27313C205.67729,332.46432,218.62419,321.66187,231.59506,310.83905C231.82745,310.64517,232.17302,310.67636,232.36691,310.90872C232.56082,311.1411,232.5296,311.4867,232.29723,311.68057L232.29723,311.68057C219.34045,322.49164,206.36053,333.32233,198.42679,339.15613L198.42679,339.15613C190.46294,345.01202,187.53561,345.8684,184.59793,346.71356L184.63614,346.70105C178.5077,348.9624,172.41745,351.20786,163.11458,358.9126L163.11458,358.9126C153.77505,366.6477,141.2154,379.86896,128.6186,393.13065C128.50009,393.25543,128.32982,393.31726,128.15884,393.2977L128.15884,393.2977C124.70389,392.90146,121.314255,392.5143,118.83073,392.61813L118.830734,392.61813C116.39574,392.71997,114.83169,393.2955,113.2146,393.8956L113.21437,393.8957L113.193306,393.90347C112.9098,394.00864,112.59441,393.864,112.48911,393.5803C112.38383,393.29654,112.52848,392.98114,112.81223,392.87585 Z"/> </g> <g style="fill:rgb(0,0,0); fill-opacity:1.0; stroke-linejoin: miter"> <path d="M231.16437,311.74054L231.16437,311.74054L230.43198,309.80426C230.37753,309.66028,230.38614,309.5,230.4557,309.3627C230.52527,309.22537,230.6494,309.1237,230.79771,309.08243L230.79771,309.08243C235.02547,307.9067,239.1723,306.75046,243.74954,303.49887L243.74954,303.49887C245.08473,302.55038,246.46013,301.42108,247.91519,300.22607L247.91519,300.22607C249.49884,298.9254,251.17172,297.5512,252.9544,296.28482L252.9544,296.28482C255.1607,294.71747,257.55185,293.303,260.18506,292.38315L260.18506,292.38315C263.36005,291.27408,266.84732,290.898,270.47174,290.89798L270.47174,290.89798C274.50385,290.898,278.74243,291.36426,282.94427,291.82584C283.01294,291.83337,283.07956,291.85382,283.1406,291.88614L283.1406,291.88614C286.27155,293.54166,289.29932,295.13586,293.43124,295.3339L293.4245,295.33362L293.42508,295.33365L293.4318,295.33392C293.74664,295.34903,294.0702,295.35608,294.39954,295.35605L294.39954,295.35605C296.28162,295.35608,298.3593,295.12854,300.53833,294.88922L300.53833,294.88922C302.83682,294.63678,305.24225,294.3721,307.56906,294.3721L307.5684,294.3721L307.5703,294.3721L307.57104,294.3721C307.73175,294.37213,307.8958,294.3734,308.056,294.37607L308.05603,294.37604C313.11145,294.45956,317.70465,295.894,322.21362,297.29865L322.01328,297.27512L337.88956,296.1903L337.5186,296.37155C339.06964,294.6386,340.75302,292.73795,342.39346,292.0593L342.39346,292.0593C342.9414,291.8326,343.48016,291.74072,344.0068,291.7407L344.0068,291.7407C345.1126,291.74072,346.16614,292.15112,347.10327,292.51L346.70325,292.51315C353.52948,289.7754,360.48557,286.9774,367.23175,286.9774L367.23175,286.9774C369.3231,286.9774,371.39923,287.24557,373.44952,287.86786L373.44952,287.86786C382.09216,290.4911,390.1528,299.373,392.30435,308.1593L392.30435,308.1593C394.46893,316.99875,390.65442,325.66678,385.7981,331.49814L385.7981,331.49814C381.31656,336.87943,375.90723,339.89896,372.0362,342.063L372.0362,342.063C371.68848,342.25735,371.38522,342.4268,371.06262,342.6091L371.06262,342.6091C367.17285,344.8067,365.23676,346.20047,363.29144,347.6007L363.5193,347.16074C363.4726,352.52942,363.42944,358.01218,362.2346,362.1247L362.2346,362.1247C361.02814,366.2772,358.65872,369.01035,356.3713,371.65775C356.17346,371.8868,355.8274,371.91202,355.5984,371.71417C355.3694,371.5163,355.34412,371.17026,355.542,370.94122L355.542,370.94122C357.8374,368.28458,360.05023,365.7146,361.1821,361.81888L361.1821,361.81888C362.32544,357.88364,362.37616,352.57413,362.4233,347.15118C362.42484,346.97656,362.50946,346.81317,362.65118,346.71118L362.65118,346.71118C364.61212,345.2997,366.5844,343.8803,370.5235,341.65485L370.5235,341.65485C370.85016,341.47028,371.1526,341.3013,371.50134,341.10632L371.50134,341.10632C375.37512,338.9408,380.6181,336.00543,384.95587,330.79678L384.95587,330.79678C389.68573,325.1173,393.2915,316.7985,391.23978,308.41998L391.23978,308.41998C389.17508,299.9883,381.3828,291.42117,373.13116,288.91663L373.13116,288.91663C371.19586,288.32922,369.22818,288.0734,367.23175,288.0734L367.23175,288.0734C360.7381,288.07336,353.98944,290.7718,347.11127,293.5304C346.98306,293.5818,346.8402,293.58292,346.71124,293.5335L346.71124,293.5335C345.7342,293.1593,344.87402,292.8367,344.00677,292.8367L344.00677,292.8367C343.61237,292.8367,343.2172,292.9046,342.81244,293.07205L342.81244,293.07205C341.45935,293.63184,339.96353,295.28326,338.33524,297.1025C338.23996,297.20898,338.1068,297.274,337.9643,297.28375L337.9643,297.28375L322.08798,298.3686C322.02032,298.3732,321.95242,298.36523,321.88763,298.34503L321.88763,298.34503C317.35767,296.93387,312.91138,295.5524,308.0379,295.47192L308.03793,295.47192C307.88602,295.4694,307.724,295.4681,307.5709,295.4681L307.57166,295.4681L307.56973,295.4681L307.56906,295.46808C305.3128,295.46808,302.96777,295.72504,300.65796,295.97867L300.65796,295.97867C298.4937,296.21634,296.35333,296.45206,294.39954,296.45203L294.39954,296.45203C294.05463,296.45203,293.71375,296.4447,293.37933,296.42868L293.38605,296.42896L293.3855,296.42896L293.37875,296.42865C288.97498,296.21756,285.74985,294.50555,282.6283,292.855L282.82462,292.9153C278.61023,292.45233,274.43292,291.994,270.47174,291.99402L270.47174,291.99402C266.91547,291.994,263.56277,292.36423,260.54648,293.41788L260.54648,293.41788C258.04562,294.29147,255.74829,295.64447,253.58914,297.17828L253.58914,297.17828C251.84248,298.41913,250.19914,299.76855,248.61081,301.07303L248.61081,301.07303C247.16278,302.2623,245.75658,303.4175,244.38426,304.3924L244.38426,304.3924C239.63675,307.76495,235.32353,308.96143,231.09135,310.13834L231.4571,309.41653L232.18948,311.35278C232.29655,311.6359,232.15387,311.95215,231.87079,312.05923C231.58772,312.1663,231.27144,312.02362,231.16437,311.74054 Z"/> </g> <g style="fill:rgb(0,0,0); fill-opacity:1.0; stroke-linejoin: miter"> <path d="M356.36133,371.41147L356.36133,371.41147C357.01227,374.8175,357.67776,378.29022,357.0003,383.23383L357.0003,383.23383C356.32806,388.1394,354.332,394.49005,352.35886,400.77377L352.3838,400.59344C352.58112,407.2869,352.7835,414.06082,351.38766,420.5534L351.38766,420.5534C349.992,427.0451,347.00372,433.2314,344.05286,439.34644L344.04034,439.37076C337.42764,451.48926,330.82336,463.59244,326.91025,471.3812L326.91025,471.3812C323.00488,479.1545,321.7877,482.61548,320.56747,486.0825L320.58002,485.75925L320.59268,485.80667L320.59268,485.80664C321.88226,490.63754,323.1861,495.52344,323.61768,499.1099L323.61768,499.1099C324.0555,502.74875,323.59796,505.05698,323.15167,507.31094L323.0997,506.95056C325.29578,511.1498,327.54782,515.4452,327.89514,521.4809L327.89514,521.4809C328.23987,527.4721,326.7028,535.1611,325.1905,542.7458L325.19525,542.7183C322.81326,558.9274,320.42346,575.19806,317.36472,585.7494L317.36472,585.7494C315.6524,591.65594,313.7309,595.771,312.0786,599.3102L312.0786,599.3102C310.81473,602.0174,309.72214,604.3603,308.97855,606.9253L308.97852,606.9253C308.9514,607.0189,308.92453,607.1136,308.89832,607.2078L308.89832,607.2078C307.2106,613.2796,307.47867,620.7399,307.7564,628.31903C307.7675,628.6215,307.5313,628.8757,307.22885,628.8868C306.9264,628.8979,306.67224,628.6617,306.66113,628.3592L306.66113,628.3592C306.38528,620.831,306.0998,613.1834,307.84235,606.9143L307.84235,606.91437C307.86963,606.8161,307.89758,606.7177,307.92587,606.6202L307.92587,606.6202C308.69708,603.9598,309.82794,601.5401,311.0855,598.8465L311.0855,598.8465C312.73422,595.315,314.6247,591.2647,316.312,585.4442L316.312,585.4442C319.34494,574.98206,321.7239,558.802,324.1109,542.559L324.11563,542.53156C325.6381,534.8958,327.13583,527.3639,326.80093,521.5439L326.80093,521.5439C326.4686,515.7684,324.32642,511.66122,322.12848,507.45847C322.07062,507.34775,322.05228,507.2206,322.07654,507.09805L322.07654,507.09805C322.51697,504.87366,322.94617,502.7034,322.5295,499.2408L322.5295,499.2408C322.10938,495.74924,320.83148,490.95065,319.53375,486.08932L319.53375,486.08932L319.52112,486.04187C319.49265,485.93533,319.497,485.82266,319.53363,485.7186L319.53363,485.7186C320.76544,482.21872,321.99997,478.7134,325.9309,470.88913L325.9309,470.88913C329.8547,463.07916,336.46967,450.95676,343.07825,438.8458L343.06577,438.8701C346.028,432.7315,348.95288,426.6642,350.31616,420.323L350.31616,420.323C351.67926,413.9828,351.48633,407.3444,351.28827,400.62573C351.28647,400.56467,351.29486,400.50372,351.31317,400.44543L351.31317,400.44543C353.29694,394.1279,355.25763,387.87814,355.9145,383.085L355.9145,383.085C356.56604,378.33014,355.93268,375.0071,355.2848,371.61722C355.22797,371.31995,355.4229,371.0329,355.72015,370.97607C356.01746,370.91928,356.3045,371.1142,356.36133,371.41147 Z"/> </g> <g style="fill:rgb(0,0,0); fill-opacity:1.0; stroke-linejoin: miter"> <path d="M222.27539,497.7011L222.27539,497.7011L228.9899,506.3996L228.39645,506.21024L235.75,503.97055C235.89423,503.92664,236.05019,503.9441,236.18115,504.01877L236.18115,504.01877C243.24744,508.0493,250.28036,512.0601,256.37466,514.77875L256.37466,514.77875C258.68073,515.80743,260.85492,516.6522,262.93298,517.45953L262.93298,517.45953C264.81024,518.18884,266.61334,518.88916,268.34753,519.6628L268.34753,519.6628C269.7567,520.2914,271.12506,520.97034,272.46008,521.7573L272.46008,521.7573C277.2442,524.57764,281.5365,528.75165,285.7706,532.8651C285.91302,533.0035,285.96942,533.208,285.91812,533.39984L285.91812,533.39984C283.14606,543.758,280.41208,553.99426,280.56424,561.31134L280.56424,561.31134C280.63855,564.88464,281.40268,567.76776,282.31207,571.1892L282.31207,571.1892C283.25104,574.72186,284.33246,578.7894,284.90427,584.6697L284.90427,584.6697C286.0258,596.20306,285.1841,614.71893,284.34692,633.16693C284.33322,633.4693,284.07703,633.70325,283.77466,633.6896C283.47232,633.67584,283.23834,633.4196,283.25208,633.1173L283.25208,633.1173C284.091,614.6306,284.92545,596.2115,283.81342,584.77576L283.81342,584.77576C283.2507,578.9888,282.18884,574.99225,281.25287,571.4707L281.25287,571.4707C280.346,568.05884,279.54587,565.0564,279.46848,561.3341L279.46848,561.3341C279.3123,553.82404,282.10486,543.4092,284.85938,533.11646L285.0069,533.6512C280.751,529.51666,276.55365,525.4429,271.90347,522.70154L271.90347,522.70154C270.61307,521.9408,269.28342,521.2804,267.901,520.6637L267.901,520.6637C266.1958,519.903,264.4181,519.2123,262.5361,518.4811L262.5361,518.4811C260.46027,517.6747,258.2624,516.8209,255.92816,515.77966L255.92816,515.77966C249.77408,513.0343,242.68988,508.99304,235.63815,504.97083L236.0693,505.01904L228.71577,507.25867C228.49782,507.325,228.26154,507.24963,228.12231,507.0693L228.12231,507.0693L221.4078,498.37082C221.22287,498.13123,221.26717,497.7871,221.50674,497.60217C221.74632,497.41724,222.09045,497.46155,222.27539,497.7011 Z"/> </g> <g style="fill:rgb(0,0,0); fill-opacity:1.0; stroke-linejoin: miter"> <path d="M284.41953,633.4064L284.41953,633.4064C283.59875,634.9286,282.72565,636.557,281.86182,637.48364L281.86182,637.4837C281.44537,637.93036,280.92477,638.33344,280.31644,638.3491L280.31644,638.3491C279.90305,638.35974,279.5243,638.1784,279.2782,638.06793L279.2782,638.06793C278.95105,637.921,278.7286,637.8299,278.48627,637.8361L278.48624,637.8361C278.24777,637.8422,277.87497,637.9523,277.32004,638.54755L277.32004,638.54755C276.9303,638.96564,276.47018,639.6035,275.92712,640.5596L275.92712,640.5596C273.263,645.2496,269.023,656.79346,269.84158,662.79803L269.84158,662.79803C270.61475,668.46936,276.05347,669.22015,281.82166,669.26666L281.82166,669.26666C287.44943,669.31213,292.74384,668.70294,298.07397,668.08905C298.13974,668.0815,298.20633,668.0859,298.27048,668.10205L298.27048,668.10205C307.73773,670.4856,317.1394,672.8507,325.2699,673.39856L325.2699,673.39856C333.38004,673.94507,340.22427,672.68085,345.91275,670.40533L345.91275,670.40533C350.2556,668.6681,353.89047,666.35583,355.86932,664.23315L355.86932,664.23315C356.49045,663.56683,356.93094,662.9377,357.1846,662.36926L357.1846,662.36926C357.9582,660.63586,357.06256,659.2013,355.25055,658.39264L355.25055,658.39264C354.77478,658.1803,354.2445,658.0187,353.68262,657.91736L353.68262,657.91736C352.6435,657.7298,351.50073,657.7468,350.19708,657.7685L350.19708,657.7685C348.6972,657.7934,347.01752,657.8228,345.21277,657.49713L345.21277,657.49713C344.51385,657.371,343.79547,657.1917,343.0589,656.9383L343.0589,656.9383C338.83234,655.4847,334.06866,651.59924,329.42154,647.8188L329.40704,647.80664L307.14496,628.38074C306.9169,628.1817,306.89337,627.8356,307.09235,627.6075C307.29132,627.37946,307.6375,627.35583,307.86554,627.55493L307.86554,627.55493L330.12766,646.98083L330.1132,646.96857C334.82297,650.80005,339.41602,654.5264,343.41534,655.9019L343.41534,655.9019C344.0946,656.1356,344.75845,656.30145,345.4074,656.4186L345.4074,656.4186C347.09204,656.7226,348.66965,656.69775,350.17886,656.6726L350.17886,656.6726C351.45673,656.6514,352.7126,656.62854,353.87726,656.8387L353.87726,656.8387C354.5194,656.9546,355.135,657.14087,355.6972,657.3918L355.6972,657.3918C357.8171,658.3378,359.30237,660.3133,358.18546,662.816L358.18546,662.816C357.8667,663.5302,357.34338,664.2592,356.67096,664.98047L356.67096,664.98047C354.54294,667.2632,350.748,669.6516,346.31982,671.4229L346.31982,671.4229C340.4747,673.7611,333.46582,675.0493,325.1962,674.49207L325.1962,674.49207C316.94727,673.9362,307.44174,671.5412,298.00293,669.1649L298.1994,669.1779C292.8778,669.7908,287.5181,670.40875,281.8128,670.3626L281.8128,670.3626C276.2472,670.31775,269.67072,669.6587,268.7556,662.9461L268.7556,662.9461C267.88596,656.5669,272.28464,644.7529,274.97412,640.01825L274.97412,640.01825C275.54095,639.0204,276.04938,638.3033,276.51834,637.80023L276.51834,637.80023C277.19418,637.0753,277.82614,636.7567,278.45807,636.7405L278.45807,636.7405C278.98682,636.72687,279.43015,636.9347,279.72717,637.0681L279.72717,637.0681C280.03192,637.20496,280.17166,637.2565,280.28824,637.2535L280.28824,637.2535C280.43173,637.2498,280.68616,637.1375,281.06015,636.73627L281.06015,636.7363C281.80432,635.93805,282.6035,634.46515,283.45483,632.8862C283.59848,632.6198,283.93088,632.5203,284.19727,632.66394C284.46368,632.8076,284.5632,633.14,284.41953,633.4064 Z"/> </g> <g style="fill:rgb(0,0,0); fill-opacity:1.0; stroke-linejoin: miter"> <path d="M222.85532,498.73984L222.85532,498.73984L203.93063,524.5343C203.76437,524.7609,203.4536,524.8251,203.21124,524.6827L203.21124,524.6827L199.45892,522.47876L200.24281,522.2158C196.84761,530.4179,193.4237,538.69556,189.3278,544.72705L189.3278,544.72705C185.21736,550.7799,180.44122,554.5575,175.73035,558.2871L175.82742,558.1878C173.33078,561.4922,170.80362,564.837,165.18733,568.7567L165.18733,568.7567C159.60535,572.6526,150.96216,577.12146,142.37115,581.5647L142.4283,581.5306C127.0121,592.0504,111.638596,602.54224,101.56674,611.3194L101.56674,611.3194C91.51974,620.0749,86.75312,627.12146,81.961624,634.2055C81.79206,634.4562,81.45137,634.5219,81.20068,634.35236C80.95,634.18274,80.884224,633.84216,81.05378,633.5914L81.05378,633.5914C85.859276,626.4867,90.68982,619.3444,100.846664,610.4931L100.846664,610.4931C110.97867,601.6635,126.416046,591.1303,141.81052,580.6253C141.82886,580.6128,141.84793,580.6014,141.86766,580.59125L141.86766,580.59125C150.48598,576.1339,159.05164,571.70245,164.56006,567.858L164.56006,567.858C170.0339,564.03766,172.47824,560.8025,174.95297,557.5271C174.98099,557.49,175.0136,557.45667,175.05005,557.4278L175.05005,557.4278C179.76573,553.69434,184.4161,550.0089,188.42111,544.1113L188.42111,544.1113C192.44054,538.19244,195.82108,530.0322,199.23013,521.79663C199.29079,521.65015,199.4119,521.5371,199.56221,521.4867C199.71252,521.4363,199.87732,521.4534,200.014,521.5337L200.014,521.5337L203.76633,523.7377L203.04694,523.886L221.97165,498.09152C222.15067,497.8475,222.49364,497.7948,222.73764,497.97388C222.98166,498.1529,223.03436,498.49585,222.85532,498.73984 Z"/> </g> <g style="fill:rgb(0,0,0); fill-opacity:1.0; stroke-linejoin: miter"> <path d="M304.3791,477.53085L304.3791,477.53085C306.62207,473.5003,308.80304,469.56955,309.23376,464.16513L309.23376,464.16513C309.45105,461.43835,309.22443,458.32632,308.98947,455.11847L308.98947,455.11847C308.75745,451.9501,308.5178,448.69208,308.72406,445.72305L308.72406,445.72305C309.13928,439.7458,311.357,434.9816,313.52594,430.31113L313.50983,430.34958L319.88934,413.33514L319.85767,413.46835L321.8766,394.8895L322.76733,395.37375C321.26526,396.59634,319.68744,397.8862,317.7231,398.64435L317.7231,398.64435C315.76904,399.39856,313.46082,399.61462,311.2525,399.8251L311.6299,399.62003L293.8527,422.0439L293.87354,422.01584C290.07883,427.48636,286.2688,432.97946,283.16348,436.88736L283.16348,436.88736C280.04855,440.80737,277.6425,443.13318,275.25378,445.44238L275.26306,444.66357L298.9495,468.67868C298.9692,468.6987,298.98737,468.72015,299.0038,468.74295L299.0038,468.74295L305.3024,477.4768L304.3791,477.53085 M305.3368,478.0638C305.24564,478.2276,305.0771,478.33347,304.88998,478.34442C304.70285,478.35538,304.5231,478.26993,304.41345,478.1179L304.41345,478.1179L298.11487,469.38403L298.1692,469.4483L274.48276,445.43323C274.38004,445.32907,274.3232,445.18817,274.32495,445.0419C274.3267,444.89563,274.38687,444.7561,274.49203,444.65442L274.49203,444.65442C276.8731,442.35254,279.2369,440.06708,282.30542,436.20554L282.30542,436.20554C285.38348,432.33185,289.17062,426.87274,292.973,421.39114C292.97964,421.38153,292.98657,421.37216,292.99384,421.36304L292.99384,421.36304L310.77106,398.93912C310.8637,398.82224,311.0,398.7482,311.14847,398.73404L311.14847,398.73404C313.39545,398.51987,315.5421,398.31134,317.3285,397.62186L317.3285,397.62186C319.10443,396.93643,320.5521,395.76367,322.07544,394.5237C322.2478,394.38342,322.48785,394.36108,322.6831,394.46725C322.8784,394.57343,322.9902,394.787,322.9662,395.0079L322.9662,395.0079L320.94727,413.58676C320.94232,413.6323,320.93164,413.67703,320.9156,413.71994L320.9156,413.71994L314.53607,430.73434C314.5312,430.74734,314.52582,430.76016,314.52,430.77277L314.52,430.77277C312.344,435.45837,310.21677,440.05045,309.8174,445.799L309.8174,445.799C309.61758,448.67535,309.84915,451.85147,310.08255,455.0384L310.08255,455.0384C310.31586,458.224,310.55157,461.4254,310.3263,464.25217L310.3263,464.25217C309.87445,469.9216,307.57465,474.04245,305.3368,478.0638 Z"/> </g> <g style="fill:rgb(0,0,0); fill-opacity:1.0; stroke-linejoin: miter"> <path d="M97.556984,389.74277C99.697876,389.74277,101.675255,390.64285,102.8669,391.66003C104.81004,393.31866,104.688484,395.2998,104.60062,397.00073C104.593704,397.13464,104.53792,397.26138,104.44384,397.3569C102.86345,398.96207,101.44339,400.4236,101.013756,401.7147C100.611496,402.92343,101.08034,404.0423,101.67759,405.39706C101.75295,405.56802,101.73603,405.7656,101.6327,405.92123C100.46837,407.67496,99.53402,409.14133,99.67634,410.25955C99.8142,411.3427,101.005394,412.26563,102.54671,413.39697C102.66428,413.48328,102.7426,413.6129,102.76433,413.7571C102.78606,413.90134,102.74939,414.04828,102.66246,414.16537C101.4142,415.84695,100.48361,417.1792,100.714584,418.20422C100.950584,419.2516,102.430305,420.20618,104.30736,421.3546C104.46629,421.45184,104.564926,421.62317,104.569214,421.80945C104.573494,421.99573,104.482834,422.17142,104.32853,422.27588C102.961334,423.2013,102.31342,423.7466,102.55878,424.45068C102.90424,425.44196,104.7296,426.8854,106.84143,428.5187C107.008896,428.6482,107.08678,428.8626,107.04149,429.0694C106.9962,429.2762,106.835846,429.43842,106.62958,429.4861C105.40192,429.7698,104.13829,430.06253,102.816154,430.20575C102.28709,430.26306,101.7476,430.29666,101.194786,430.29666C100.264465,430.29666,99.29644,430.20154,98.27693,429.96436C95.17343,429.24237,91.629105,427.20325,88.18821,425.2294C87.98972,425.11557,87.88287,424.89035,87.92024,424.66458C88.66623,420.1577,89.38997,415.75842,88.98844,412.1689C88.5902,408.6089,87.078964,405.81778,85.50881,402.92975C85.420746,402.76776,85.42004,402.57236,85.50691,402.4098C88.052734,397.64453,90.710785,392.62668,93.93094,390.72263C94.850296,390.17902,95.81012,389.88806,96.75404,389.7858C97.023415,389.75662,97.29146,389.74277,97.556984,389.74277 Z M322.4215,394.4007C322.51105,394.4007,322.60104,394.42264,322.6831,394.46725C322.8784,394.57343,322.9902,394.787,322.9662,395.0079L320.94727,413.58676C320.94232,413.6323,320.93164,413.67703,320.9156,413.71994L314.53607,430.73434C314.5312,430.74734,314.52582,430.76016,314.52,430.77277C312.344,435.45837,310.21677,440.05045,309.8174,445.799C309.61758,448.67535,309.84915,451.85147,310.08255,455.0384C310.31586,458.224,310.55157,461.4254,310.3263,464.25217C309.87445,469.9216,307.57465,474.04245,305.3368,478.0638C305.24564,478.2276,305.0771,478.33347,304.88998,478.34442C304.87924,478.34506,304.86856,478.34537,304.85788,478.34537C304.68246,478.34537,304.5168,478.2612,304.41345,478.1179L298.13953,469.41824L274.48276,445.43323C274.38004,445.32907,274.3232,445.18817,274.32495,445.0419C274.3267,444.89563,274.38687,444.7561,274.49203,444.65442C276.8731,442.35254,279.2369,440.06708,282.30542,436.20554C285.38348,432.33185,289.17062,426.87274,292.973,421.39114C292.97964,421.38153,292.98657,421.37216,292.99384,421.36304L310.77106,398.93912C310.8637,398.82224,311.0,398.7482,311.14847,398.73404C313.39545,398.51987,315.5421,398.31134,317.3285,397.62186C319.10443,396.93643,320.5521,395.76367,322.07544,394.5237C322.17535,394.44238,322.298,394.4007,322.4215,394.4007 Z M367.23163,288.0734C360.738,288.0734,353.9894,290.77182,347.11127,293.5304C347.0458,293.55664,346.97656,293.56976,346.90726,293.56976C346.84082,293.56976,346.77438,293.55768,346.71124,293.5335C345.7342,293.1593,344.87402,292.8367,344.00677,292.8367C343.61237,292.8367,343.2172,292.9046,342.81244,293.07205C341.45935,293.63184,339.96353,295.28326,338.33524,297.1025C338.23996,297.20898,338.1068,297.274,337.9643,297.28375L322.08798,298.3686C322.07556,298.36945,322.0631,298.36987,322.0507,298.36987C321.99548,298.36987,321.94052,298.3615,321.88763,298.34503C317.35767,296.93387,312.91138,295.5524,308.0379,295.47192L308.03793,295.47192C307.88602,295.4694,307.724,295.4681,307.5709,295.4681L307.56973,295.4681L307.56906,295.46808C305.3128,295.46808,302.96777,295.72504,300.65796,295.97867C298.49387,296.2163,296.3536,296.45203,294.3999,296.45203L294.39954,296.45203C294.0566,296.45203,293.71765,296.4448,293.38507,296.42896L293.3855,296.42896L293.37875,296.42865C289.0188,296.21967,285.81415,294.5395,282.7215,292.9043L282.72433,292.9043C278.54413,292.4451,274.4018,291.99402,270.47214,291.99402L270.4713,291.99402C266.9152,291.99402,263.56265,292.36426,260.54648,293.41788C258.04562,294.29147,255.74829,295.64447,253.58914,297.17828C251.84248,298.41913,250.19914,299.76855,248.61081,301.07303C247.16278,302.2623,245.75658,303.4175,244.38426,304.3924C239.85187,307.61215,235.71529,308.84854,231.66718,309.97803L231.6695,309.97803L231.94704,310.71182L231.94586,310.71182C232.10277,310.71182,232.25853,310.77884,232.36691,310.90872C232.56082,311.1411,232.5296,311.4867,232.29723,311.68057C232.25325,311.71725,232.20927,311.75397,232.16528,311.79065L232.1676,311.79065C232.10825,311.9101,232.00539,312.00833,231.87079,312.05923C231.85463,312.06534,231.83835,312.07065,231.822,312.07516L231.82433,312.07516C219.02538,322.75443,206.264,333.3933,198.42679,339.15613C190.47299,345.00464,187.54301,345.86624,184.60907,346.71036L184.61092,346.71036C178.49098,348.96857,172.40468,351.2184,163.11458,358.9126C153.77505,366.6477,141.2154,379.86896,128.6186,393.13065C128.51453,393.24023,128.37054,393.30127,128.22122,393.30127C128.2005,393.30127,128.17967,393.30008,128.15884,393.2977C125.0904,392.9458,122.07349,392.60104,119.69709,392.60104C119.39774,392.60104,119.10857,392.6065,118.83073,392.61813L118.830734,392.61813C116.39574,392.71997,114.83169,393.2955,113.2146,393.8956L113.21437,393.8957L113.193306,393.90347C113.13055,393.92676,113.06622,393.9378,113.00297,393.9378C112.786095,393.9378,112.58171,393.80804,112.49558,393.5969L112.496704,393.5969C112.464226,393.5681,112.43467,393.53497,112.40891,393.49765C108.27092,387.5011,104.34687,381.89322,98.013115,381.81586C97.96812,381.8153,97.923,381.81503,97.87775,381.81503C91.42305,381.81503,82.40512,387.39005,73.14606,393.1451L73.14604,393.1451L73.117874,393.16263C73.030754,393.2168,72.93049,393.24524,72.82856,393.24524C72.81297,393.24524,72.797356,393.24457,72.78173,393.24323C69.45636,392.95807,66.20361,392.68683,63.231846,392.68683C58.212734,392.68683,53.99509,393.46054,51.582634,396.24768C47.71357,400.71762,48.286972,410.5797,49.800243,419.75983C50.39519,423.3688,51.119408,426.78992,52.10899,429.73615C53.6174,434.2271,55.69537,437.4727,58.721535,438.7062C59.796906,439.14456,61.006096,439.33923,62.324715,439.33923C67.305405,439.33923,73.84737,436.56158,80.6363,433.64542L80.63637,433.64542L80.67031,433.6308C80.740776,433.60052,80.81409,433.5862,80.88622,433.5862C81.09866,433.5862,81.30087,433.7105,81.39003,433.9181C81.402466,433.94702,81.41221,433.97647,81.41938,434.00607L81.4202,434.00607C88.99284,436.0244,96.405846,437.96057,102.00152,437.96057C102.65647,437.96057,103.28653,437.93405,103.88904,437.87802C109.56497,437.35025,112.80865,434.18826,116.13768,430.83685L116.13884,430.83685C116.12985,430.81607,116.122055,430.79453,116.115555,430.77222C116.03081,430.48163,116.19763,430.17743,116.488174,430.09265L124.36647,427.79453L132.5921,411.98312C132.62987,411.91052,132.68341,411.8473,132.74881,411.7981L158.23827,392.624C158.2803,392.59235,158.32666,392.56696,158.37593,392.54855C168.25967,388.85645,178.0871,385.1838,186.24637,380.45767C194.3982,375.7359,200.89957,369.95367,207.44476,364.1303C207.54544,364.04077,207.67519,363.99173,207.80904,363.99173C207.82207,363.99173,207.83513,363.9922,207.8482,363.99313L212.34491,364.31543C212.4772,364.32492,212.59515,364.38058,212.6841,364.46558C212.69156,364.45102,212.69904,364.43643,212.7065,364.42188C212.80353,364.23254,212.99553,364.12372,213.19456,364.12372C213.2787,364.12372,213.3641,364.1432,213.44412,364.1842C213.71346,364.32224,213.81987,364.6525,213.68181,364.9218C211.77759,368.63657,209.89163,372.3169,208.73361,375.23148C207.58295,378.12756,207.15074,380.26962,206.71188,382.44733C206.68446,382.58334,206.60645,382.70395,206.49359,382.7847L189.48831,394.95444L189.49022,394.95444C189.50407,394.97723,189.51645,395.0013,189.52713,395.02664C189.6448,395.30545,189.51419,395.62692,189.23537,395.74463C182.76518,398.47574,176.30135,401.16748,167.88287,417.70197C159.44598,434.2726,149.09897,464.64594,138.72453,495.12964L138.72592,495.12964L145.42624,499.26767C145.5782,499.3615,145.67487,499.5235,145.68535,499.70178C146.43712,512.50616,147.2188,525.551,143.82568,533.123C141.86977,537.4877,138.55176,540.014,134.64651,542.173C133.21541,542.9642,131.69525,543.71136,130.13315,544.4794L130.13315,544.4793C128.44289,545.3103,126.69802,546.16815,124.92887,547.14624C117.05207,551.5011,108.643524,558.26685,102.54181,565.53107C101.272545,567.0421,100.10213,568.5759,98.98388,570.1425C96.961876,572.9753,95.11598,575.90765,93.16797,579.00244C91.019554,582.41565,88.749275,586.0226,86.00169,589.8719C79.393616,599.1296,70.02841,609.78424,60.689312,620.41016C60.6599,620.4436,60.62653,620.4733,60.589928,620.4987L49.106045,628.46027C49.011784,628.5256,48.902695,628.55786,48.793945,628.55786C48.675304,628.55786,48.557068,628.5195,48.45894,628.4436L48.45897,628.4436C47.978004,628.0728,47.551598,627.7467,47.114815,627.53394L47.1148,627.5339C46.83767,627.3988,46.544376,627.3005,46.219013,627.3005C45.615284,627.3005,44.901134,627.63904,43.97493,628.7096C41.765274,631.2636,38.742683,637.56244,35.66077,643.9976C35.627556,644.067,35.58011,644.1286,35.52153,644.17847C31.337389,647.73645,27.886658,650.79346,30.140774,654.55963C32.577164,658.63025,41.435406,663.60187,50.59459,668.7085L50.59464,668.7085L50.68035,668.7563C50.752636,668.79663,50.814888,668.8528,50.86238,668.92065C55.068752,674.9293,59.17928,680.7797,65.32064,683.7725L65.3206,683.7726C65.45801,683.83954,65.60809,683.9105,65.747604,683.9745L65.75,683.9756L65.75282,683.97687L65.752785,683.97687C70.87425,686.32355,77.43427,686.72064,84.37581,686.72064C86.09812,686.72064,87.843925,686.69617,89.59707,686.671L89.59796,686.671C93.80611,685.98395,97.84304,685.3097,100.832886,683.23627L100.8329,683.23627C103.79753,681.18036,105.640594,677.85376,102.78053,673.62006C101.461075,671.667,99.15134,669.5176,96.532104,667.0854C93.25859,664.0456,89.545654,660.60187,87.01461,656.7114C82.68487,650.05634,81.847084,642.15155,81.17805,634.3368L81.17886,634.3368C80.946304,634.1626,80.88925,633.8347,81.05378,633.5914C81.071556,633.56506,81.08933,633.5388,81.10712,633.5125L81.107925,633.5125C81.09823,633.3981,81.08855,633.2836,81.078865,633.16925C81.05334,632.8677,81.277115,632.60254,81.57869,632.577C81.59444,632.5757,81.610085,632.575,81.6256,632.575C81.66269,632.575,81.69904,632.5788,81.734276,632.58594C86.32666,625.8093,91.16874,618.92706,100.846664,610.4931C110.97867,601.6635,126.416046,591.1303,141.81052,580.6253C141.82886,580.6128,141.84793,580.6014,141.86766,580.59125C150.48598,576.1339,159.05164,571.70245,164.56006,567.858C170.0339,564.03766,172.47824,560.8025,174.95297,557.5271C174.98099,557.49,175.0136,557.45667,175.05005,557.4278C179.76573,553.69434,184.4161,550.0089,188.42111,544.1113C192.44054,538.19244,195.82108,530.0322,199.23013,521.79663C199.29079,521.65015,199.4119,521.5371,199.56221,521.4867C199.619,521.46765,199.67786,521.45825,199.73648,521.45825C199.83302,521.45825,199.92896,521.48376,200.014,521.5337L203.33963,523.48706L221.59183,498.60922L221.4078,498.37082C221.22287,498.13123,221.26717,497.7871,221.50674,497.60217C221.60646,497.5252,221.72427,497.48795,221.8412,497.48795C222.0052,497.48795,222.16742,497.56125,222.27539,497.7011L222.404,497.86774C222.40732,497.86768,222.41061,497.86765,222.41391,497.86765C222.52643,497.86765,222.63997,497.9022,222.73764,497.97388C222.92757,498.11322,223.00159,498.35184,222.94066,498.56586L222.9429,498.56586L228.75859,506.09995L235.75,503.97055C235.80225,503.95465,235.85602,503.94678,235.90959,503.94678C236.00394,503.94678,236.09763,503.97113,236.18115,504.01877C243.24744,508.0493,250.28036,512.0601,256.37466,514.77875C258.68073,515.80743,260.85492,516.6522,262.93298,517.45953C264.81024,518.18884,266.61334,518.88916,268.34753,519.6628C269.7567,520.2914,271.12506,520.97034,272.46008,521.7573C277.2442,524.57764,281.5365,528.75165,285.7706,532.8651C285.91302,533.0035,285.96942,533.208,285.91812,533.39984C283.14606,543.758,280.41208,553.99426,280.56424,561.31134C280.63855,564.88464,281.40268,567.76776,282.31207,571.1892C283.25104,574.72186,284.33246,578.7894,284.90427,584.6697C286.01846,596.1277,285.19504,614.4771,284.36334,632.8051L284.36618,632.8051C284.49847,632.97156,284.52686,633.2074,284.41953,633.4064C283.59875,634.9286,282.72565,636.557,281.86182,637.48364L281.86182,637.4837C281.44537,637.93036,280.92477,638.33344,280.31644,638.3491C280.30478,638.3494,280.29315,638.34955,280.28152,638.34955C279.88177,638.34955,279.51736,638.1753,279.2782,638.06793C278.96158,637.9257,278.74304,637.8358,278.5096,637.8358C278.50186,637.8358,278.49408,637.83594,278.48627,637.8361L278.48624,637.8361C278.24777,637.8422,277.87497,637.9523,277.32004,638.54755C276.9303,638.96564,276.47018,639.6035,275.92712,640.5596C273.263,645.2496,269.023,656.79346,269.84158,662.79803C270.61475,668.46936,276.05347,669.22015,281.82166,669.26666C282.0206,669.26825,282.21912,669.26904,282.41724,669.26904C287.8238,669.26904,292.93225,668.6812,298.07397,668.08905C298.09482,668.0867,298.11575,668.08545,298.1367,668.08545C298.18173,668.08545,298.22668,668.091,298.27048,668.10205C307.73773,670.4856,317.1394,672.8507,325.2699,673.39856C326.53754,673.484,327.77423,673.52515,328.9804,673.52515C335.49133,673.52515,341.1134,672.3252,345.91275,670.40533C350.2556,668.6681,353.89047,666.35583,355.86932,664.23315C356.49045,663.56683,356.93094,662.9377,357.1846,662.36926C357.9582,660.63586,357.06256,659.2013,355.25055,658.39264C354.77478,658.1803,354.2445,658.0187,353.68262,657.91736C352.9623,657.78735,352.1922,657.7556,351.3532,657.7556C350.98187,657.7556,350.59705,657.76184,350.19708,657.7685C349.7831,657.7754,349.35544,657.7826,348.91522,657.7826C347.76047,657.7826,346.5194,657.7329,345.21277,657.49713C344.51385,657.371,343.79547,657.1917,343.0589,656.9383C338.83234,655.4847,334.06866,651.59924,329.42154,647.8188L329.40704,647.80664L307.57132,628.7528L307.56824,628.7528C307.47705,628.83215,307.3591,628.882,307.22885,628.8868C307.22202,628.887,307.21518,628.88715,307.20837,628.88715C306.915,628.88715,306.672,628.65485,306.66113,628.3592C306.38528,620.831,306.0998,613.1834,307.84235,606.9143L307.84235,606.91437C307.86963,606.8161,307.89758,606.7177,307.92587,606.6202C308.69708,603.9598,309.82794,601.5401,311.0855,598.8465C312.73422,595.315,314.6247,591.2647,316.312,585.4442C319.34494,574.98206,321.7239,558.802,324.1109,542.559L324.11563,542.53156C325.6381,534.8958,327.13583,527.3639,326.80093,521.5439C326.4686,515.7684,324.32642,511.66122,322.12848,507.45847C322.07062,507.34775,322.05228,507.2206,322.07654,507.09805C322.51697,504.87366,322.94617,502.7034,322.5295,499.2408C322.10938,495.74924,320.83148,490.95065,319.53375,486.08932L319.52112,486.04187C319.49265,485.93533,319.497,485.82266,319.53363,485.7186C320.76544,482.21872,321.99997,478.7134,325.9309,470.88913C329.85208,463.08438,336.46082,450.97296,343.065,438.8701L343.06577,438.8701C346.028,432.7315,348.95288,426.6642,350.31616,420.323C351.67926,413.9828,351.48633,407.3444,351.28827,400.62573C351.28647,400.56467,351.29486,400.50372,351.31317,400.44543C353.29694,394.1279,355.25763,387.87814,355.9145,383.085C356.56604,378.33014,355.93268,375.0071,355.2848,371.61722C355.2498,371.43405,355.31036,371.25473,355.43158,371.1308L355.43512,371.1308C355.457,371.06305,355.49252,370.99847,355.542,370.94122C357.8374,368.28458,360.05023,365.7146,361.1821,361.81888C362.32544,357.88364,362.37616,352.57413,362.4233,347.15118C362.42484,346.97656,362.50946,346.81317,362.65118,346.71118C364.61212,345.2997,366.5844,343.8803,370.5235,341.65485C370.85016,341.47028,371.1526,341.3013,371.50134,341.10632C375.37512,338.9408,380.6181,336.00543,384.95587,330.79678C389.68573,325.1173,393.2915,316.7985,391.23978,308.41998C389.17508,299.9883,381.3828,291.42117,373.13116,288.91663C371.19586,288.32922,369.22818,288.0734,367.23175,288.0734 Z"/> </g> </g> </svg>