<?xml version='1.0' encoding='utf-8'?>
<svg xmlns="http://www.w3.org/2000/svg" version="1.1" width="600px" height="976px" viewBox="0 0 600 976"> <g id="layer1"> <g style="fill:rgb(0,0,0); fill-opacity:1.0; stroke-linejoin: miter"> <path d="M88.824745,321.33478L93.326324,327.9481L97.23483,337.1504L99.76075,341.45267L100.97076,347.3203L100.68966,351.30884Q98.14694,355.72797,97.920746,360.83456L98.00692,366.80377L97.19431,371.69077L97.30641,376.68427L96.19636,380.53543L95.74806,381.3966L86.15017,382.97574L83.95609,379.65778L81.94163,374.00604L79.46217,362.2733L79.17348,358.29218L79.67144,353.3205L79.59149,340.32074Q79.245186,337.3302,77.88258,334.61554L77.839935,333.71356L79.79024,330.22122L83.64823,327.11325L87.101654,323.49747L88.14905,321.82407 M130.1389,203.25479L124.234245,204.32016L119.79139,206.60791L118.2818,207.91983L115.18294,211.84207Q114.6844,214.00912,113.81144,215.58473L113.32795,221.56444L113.45243,226.53444L111.60115,228.78828Q111.58038,229.78831,111.566,230.78743L113.82996,237.39827Q114.68887,239.50726,117.02846,239.26886L117.95533,248.22818Q118.08045,249.07428,117.69227,250.05995L111.23267,256.3069L100.212875,263.19626L96.02819,267.48846L82.93211,272.4667Q81.10838,273.5844,79.76265,275.03882L77.707565,279.46503L76.59157,285.35974L75.46243,288.13916L71.67459,292.73883Q70.4801,294.39264,69.64782,296.19485L67.67014,302.88495L67.062454,306.8196L60.419376,323.5445L59.040085,330.4047L57.86781,334.21292L57.91323,338.21005L59.90162,351.0551L64.34867,364.33005L68.54507,373.39835Q69.67156,376.7262,70.33706,382.21942L66.48341,385.12997Q64.97984,386.54688,64.225655,388.41446L61.64868,395.98883L61.06733,398.93005Q60.871994,399.95056,60.893734,400.93384L61.808807,404.7026Q63.60372,408.32565,66.361046,411.30466Q67.43359,412.5349,70.74406,413.73328L76.66941,414.7793L79.618706,414.55664L83.002846,412.44177L86.62407,408.99405L90.53505,413.10403L90.284744,416.97244L89.69806,419.8978L88.8323,436.87573L89.88666,440.71912L88.557396,447.563L87.57873,456.47165L86.50887,460.31287L83.64698,465.58038L80.934654,472.03162Q80.21999,474.45633,80.119835,478.9704L81.61962,516.9409L82.4469,524.89777L80.75805,538.78986L81.01477,547.7862L80.01631,550.60724L80.257965,553.5975L79.04975,556.3347Q79.916275,558.1952,79.65408,560.2415L81.27426,562.74805L83.76531,564.3666Q85.812836,564.58344,87.5095,565.5918Q94.99926,566.3474,100.478615,565.47565Q102.40819,564.80426,102.948364,562.54816L103.0409,559.5373Q102.309235,558.75037,101.92531,557.8806Q101.802216,555.9437,100.92623,554.0757L99.36276,551.46344L98.502335,546.53955L96.09129,537.87036L95.6744,521.8809L96.92624,510.95554L101.57084,493.56854L104.75921,485.18527L105.16346,470.19073Q105.09287,469.1872,105.47581,468.22003L113.58816,452.14902Q114.18912,451.31955,114.962715,450.74826Q117.441055,450.11395,117.62979,449.59247L119.21455,447.04523L119.61495,446.14938L120.62842,439.22388Q122.42695,434.5374,125.1848,430.34L126.86052,424.59543L128.5407,422.14502L128.9493,422.2368L135.31049,452.5771L135.41864,455.57053L135.34232,456.55487L131.30368,467.85486L129.57375,475.64795L129.70721,484.64288L131.64369,491.34933L131.96469,495.32217L131.2672,508.3023L128.73991,528.142L128.41455,529.0426Q126.48821,530.71106,126.58934,531.3736L124.07989,543.1067L123.68973,544.0222Q123.07797,544.7989,122.35089,545.4945Q122.12079,546.39264,122.2376,547.426L122.47539,548.3801Q124.2445,550.9032,127.1792,551.93896L132.11661,552.6764L141.11166,552.97504Q148.04291,554.2529,154.42522,557.11646L161.33867,558.0112L168.33725,557.8715L171.21788,557.35596L173.24509,555.2392L173.45038,552.2904Q173.0571,551.346,172.56837,550.47046L170.88737,547.99854L167.7572,545.52515L164.85225,544.8683L161.17409,543.2963L159.28375,541.1259Q157.75229,540.7567,155.175,538.3645L152.66472,532.9691Q153.17679,531.34,151.66656,528.1848Q151.16647,527.19293,150.24156,526.7538L146.30247,526.2131Q145.85872,525.4491,145.90794,524.2433Q145.86765,523.20996,145.94911,522.25275L147.84651,509.3936L154.63406,484.297L156.31696,473.42648L156.55186,468.44034L160.03351,453.85004L160.99004,451.04828L161.21321,446.07312L161.93784,445.65607L169.9366,445.51556Q171.11818,445.6083,171.49135,444.6073L171.01079,386.6554Q170.74588,385.72546,170.40048,384.77463L170.02711,380.79346L168.38068,377.16727L164.81438,363.6322L162.61955,360.28818L162.08342,357.33945L158.88472,352.2786L157.95285,349.427L159.63307,339.58673L158.71951,330.61877L158.78226,324.722L160.05606,320.93936L161.69618,318.4279L164.12656,313.02374L166.27379,317.53772L168.5409,324.1573L170.78333,328.59818Q170.86118,329.59534,170.95013,330.59082L173.1895,340.33685L174.46205,344.11612L174.87614,348.08914L176.69205,353.8059L181.88356,364.6229L187.5324,380.58987Q187.66884,381.6477,186.72002,382.23376L179.72263,387.8532L177.86865,391.39764L176.01535,397.10123L175.91283,398.12793Q175.60333,401.18207,176.92786,403.93826Q177.46802,404.73538,177.87907,405.67825L180.9592,409.41953L186.31827,412.09445L187.2301,412.47977L191.22896,412.57376Q191.60712,412.03113,194.13327,412.20203Q205.39081,410.53882,207.6064,399.38718Q207.73352,397.43716,207.53813,395.40732Q207.50072,394.36224,207.14153,393.418L204.30995,388.12817Q201.26073,384.78204,198.84547,383.868L196.4294,375.34485L196.12451,363.37454L196.49625,358.3615L196.04718,350.37415L193.85696,335.53732L192.39911,330.79108Q188.67047,326.0614,186.07568,320.61856L185.74521,314.67715L185.06052,310.74277Q183.70432,303.8108,180.31912,297.62244L179.98875,290.63904L176.95874,279.03687Q175.01541,274.9378,173.02092,273.30908L169.52539,271.3999L162.98851,268.89606L159.11389,267.90417L154.66455,263.93057L150.43309,261.27475L144.94496,256.93137Q144.13834,256.37732,143.17723,256.02588Q142.18192,252.66426,143.6272,247.26645Q145.67746,243.77338,146.1603,239.73343Q146.91776,239.29764,147.65701,238.61815L148.07547,234.64014L149.25966,231.89046L149.68994,229.9373Q149.86311,228.9886,149.6102,227.94878L147.86021,225.53168L147.59026,217.53625L145.57947,211.89107L143.62497,208.40524Q140.62827,205.67723,136.79794,204.34058L132.90572,203.4113Q131.81543,203.60446,130.91623,203.44012 Z"/> </g> </g> </svg>